<svg xmlns="http://www.w3.org/2000/svg" height="612" width="612" version="1"><path d="M82.35 17.339c-41.335 0-64.57 21.37-64.57 65.036v450.12c0 40.84 20.89 62.23 62.191 62.23h452.03c41.3 0 62.22-20.32 62.22-62.23V82.375c0-42.6-20.92-65.036-63.52-65.036 0 0-448.49-.142-448.35 0z" stroke="#fff" stroke-width="3.408"/><path fill="#fff" d="M176.498 106.165h166.59c72.85 0 126.52 65.18 126.52 132.27 0 75.43-63.86 131.78-130 131.78h-87.39v128.94h-75.72v-392.99z"/><path d="M253.178 179.015h86.08c27.79 0 55.85 25.84 55.85 60.35 0 34.5-26.14 58.46-56.81 58.46h-85.12v-118.81z"/></svg>