<svg xmlns="http://www.w3.org/2000/svg" width="512" height="512" viewBox="0 0 512 512"><path d="M166.156 512h-41.531c-7.375-.031-20.563-8.563-20.938-8.906C37.438 437.969 0 348.906 0 255.938 0 162.719 37.656 73.375 104.281 8.219 104.313 8.188 117.25 0 124.625 0h41.531c15.219 0 33.25 11.125 40.063 24.781l2.906 5.844c6.781 13.594 6.188 35.563-1.344 48.75l-27.906 48.813c-7.563 13.219-26.188 24.25-41.406 24.25H110.75c-36.813 64-36.813 143.094-.031 207.125h27.75c15.219 0 33.844 11.031 41.406 24.25l27.875 48.813c7.531 13.188 8.156 35.094 1.375 48.781l-2.906 5.844C199.375 500.844 181.375 512 166.156 512zM512 128v256c0 35.344-28.656 64-64 64H244.688c-1.25-11.219-3.969-22.156-9.156-31.25l-27.875-48.813c-13.406-23.406-42.469-40.375-69.188-40.375h-8.156c-20.188-45.438-20.188-97.719 0-143.125h8.156c26.719 0 55.781-16.969 69.188-40.375l27.906-48.813c5.188-9.094 7.906-20.063 9.156-31.25H448C483.344 64 512 92.656 512 128zM328 368c0-13.25-10.75-24-24-24s-24 10.75-24 24 10.75 24 24 24 24-10.75 24-24zm0-64c0-13.25-10.75-24-24-24s-24 10.75-24 24 10.75 24 24 24 24-10.75 24-24zm0-64c0-13.25-10.75-24-24-24s-24 10.75-24 24 10.75 24 24 24 24-10.75 24-24zm64 128c0-13.25-10.75-24-24-24s-24 10.75-24 24 10.75 24 24 24 24-10.75 24-24zm0-64c0-13.25-10.75-24-24-24s-24 10.75-24 24 10.75 24 24 24 24-10.75 24-24zm0-64c0-13.25-10.75-24-24-24s-24 10.75-24 24 10.75 24 24 24 24-10.75 24-24zm64 128c0-13.25-10.75-24-24-24s-24 10.75-24 24 10.75 24 24 24 24-10.75 24-24zm0-64c0-13.25-10.75-24-24-24s-24 10.75-24 24 10.75 24 24 24 24-10.75 24-24zm0-64c0-13.25-10.75-24-24-24s-24 10.75-24 24 10.75 24 24 24 24-10.75 24-24zm0-96c0-8.844-7.156-16-16-16H296c-8.844 0-16 7.156-16 16v32c0 8.844 7.156 16 16 16h144c8.844 0 16-7.156 16-16v-32z"/></svg>