<svg xmlns="http://www.w3.org/2000/svg" width="938.692" height="938.692" viewBox="0 0 938.692 938.692"><path d="M689.212 37.158C686.63 16.636 669.09 0 650.035 0H512.818c.003.057.011.113.012.17l3.607 175.708c.104 5.087-4.073 9.211-9.334 9.211h-72.896c-5.259 0-9.399-4.124-9.246-9.211L430.247.17c.002-.057.01-.113.013-.17H295.782c-19.055 0-36.727 16.636-39.469 37.158L140.768 901.534c-2.743 20.521 19.369 37.158 49.39 37.158H402.48a6.394 6.394 0 0 1-.398-2.376l5.525-183.663c.153-5.087 5.853-9.211 12.729-9.211h95.306c6.876 0 12.535 4.124 12.641 9.211l3.771 183.663a6.39 6.39 0 0 1-.422 2.376h216.636c30.021 0 52.265-16.638 49.684-37.158L689.212 37.158zm-266.555 215.31c.152-5.087 4.677-9.211 10.104-9.211h75.231c5.428 0 9.913 4.124 10.017 9.211l3.608 175.708c.104 5.087-4.667 9.211-10.657 9.211h-83.023c-5.989 0-10.722-4.124-10.568-9.211l5.288-175.708zm92.13 435.012h-93.061c-6.714 0-12.032-4.124-11.88-9.211l5.286-175.708c.153-5.088 5.264-9.211 11.417-9.211h85.269c6.152 0 11.225 4.123 11.328 9.211l3.608 175.708c.105 5.087-5.253 9.211-11.967 9.211z"/></svg>